<svg width="30" height="18" viewBox="0 0 30 18" fill="none" xmlns="http://www.w3.org/2000/svg">
<path d="M1.65 14C1.55 14 1.465 13.97 1.395 13.91C1.335 13.84 1.305 13.755 1.305 13.655V3.86C1.305 3.75 1.335 3.665 1.395 3.605C1.465 3.535 1.55 3.5 1.65 3.5H7.845C7.945 3.5 8.025 3.535 8.085 3.605C8.155 3.665 8.19 3.75 8.19 3.86V4.43C8.19 4.53 8.16 4.615 8.1 4.685C8.04 4.745 7.955 4.775 7.845 4.775H2.745V8.06H7.515C7.615 8.06 7.695 8.095 7.755 8.165C7.825 8.225 7.86 8.31 7.86 8.42V8.975C7.86 9.075 7.825 9.16 7.755 9.23C7.695 9.29 7.615 9.32 7.515 9.32H2.745V12.725H7.965C8.075 12.725 8.16 12.755 8.22 12.815C8.28 12.875 8.31 12.96 8.31 13.07V13.655C8.31 13.755 8.275 13.84 8.205 13.91C8.145 13.97 8.065 14 7.965 14H1.65ZM10.7467 14C10.6467 14 10.5617 13.97 10.4917 13.91C10.4317 13.84 10.4017 13.755 10.4017 13.655V3.86C10.4017 3.75 10.4317 3.665 10.4917 3.605C10.5617 3.535 10.6467 3.5 10.7467 3.5H11.4367C11.6167 3.5 11.7417 3.57 11.8117 3.71L16.7917 11.36V3.86C16.7917 3.75 16.8217 3.665 16.8817 3.605C16.9517 3.535 17.0367 3.5 17.1367 3.5H17.8567C17.9667 3.5 18.0517 3.535 18.1117 3.605C18.1817 3.665 18.2167 3.75 18.2167 3.86V13.64C18.2167 13.74 18.1817 13.825 18.1117 13.895C18.0517 13.965 17.9717 14 17.8717 14H17.1517C17.0017 14 16.8817 13.93 16.7917 13.79L11.8267 6.215V13.655C11.8267 13.755 11.7917 13.84 11.7217 13.91C11.6517 13.97 11.5667 14 11.4667 14H10.7467Z" fill="white"/>
<path d="M26.5 11L23.4689 8L29.5311 8L26.5 11Z" fill="white"/>
</svg>
