<svg width="11" height="11" viewBox="0 0 11 11" fill="none" xmlns="http://www.w3.org/2000/svg">
<g clip-path="url(#clip0)">
<path d="M6.89768 2.29159C7.34535 2.37893 7.75678 2.59787 8.0793 2.92039C8.40181 3.24291 8.62076 3.65433 8.7081 4.102L6.89768 2.29159ZM6.89768 0.458252C7.82777 0.561577 8.69508 0.978082 9.35721 1.63938C10.0193 2.30068 10.4369 3.16746 10.5414 4.09742L6.89768 0.458252ZM10.0831 7.75492V9.12992C10.0836 9.25757 10.0575 9.38391 10.0063 9.50087C9.9552 9.61783 9.88019 9.72281 9.78613 9.80911C9.69207 9.8954 9.58103 9.9611 9.46011 10.002C9.33919 10.0429 9.21106 10.0581 9.08393 10.0466C7.67356 9.89334 6.31881 9.4114 5.12852 8.6395C4.0211 7.93581 3.08221 6.99691 2.37852 5.8895C1.60392 4.6938 1.12188 3.33246 0.971433 1.91575C0.959979 1.78901 0.975042 1.66127 1.01566 1.54066C1.05628 1.42006 1.12157 1.30923 1.20737 1.21524C1.29316 1.12126 1.39759 1.04616 1.514 0.994741C1.63041 0.943322 1.75626 0.916705 1.88352 0.916585H3.25852C3.48095 0.914396 3.69659 0.993163 3.86524 1.1382C4.03389 1.28325 4.14405 1.48467 4.17518 1.70492C4.23322 2.14495 4.34085 2.577 4.49602 2.99284C4.55768 3.15688 4.57103 3.33517 4.53447 3.50657C4.49792 3.67797 4.41299 3.8353 4.28977 3.95992L3.70768 4.542C4.36015 5.68946 5.31022 6.63954 6.45768 7.292L7.03977 6.70992C7.16438 6.58669 7.32171 6.50177 7.49311 6.46521C7.66451 6.42866 7.8428 6.442 8.00685 6.50367C8.42268 6.65884 8.85474 6.76647 9.29477 6.8245C9.51741 6.85591 9.72074 6.96805 9.86609 7.1396C10.0114 7.31115 10.0887 7.53014 10.0831 7.75492Z" stroke="black" stroke-linecap="round" stroke-linejoin="round"/>
</g>
<defs>
<clipPath id="clip0">
<rect width="11" height="11" fill="white"/>
</clipPath>
</defs>
</svg>
